{"title":"Trinity Post - Pissing","uid":10826004,"size":809149194,"categoryP":"porn","categoryS":"other","magnet":"?xt=urn:btih:8686833eeccde45861b6b52cffa8bd88486e77a6&amp;dn=Trinity+Post+-+Pissing&amp;tr=udp%3A%2F%2Ftracker.openbittorrent.com%3A80&amp;tr=udp%3A%2F%2Fopen.demonii.com%3A1337&amp;tr=udp%3A%2F%2Ftracker.coppersurfer.tk%3A6969&amp;tr=udp%3A%2F%2Fexodus.desync.com%3A6969","seeders":5,"leechers":0,"uploader":"ThousandPeers","files":-1,"time":1408580541,"description":"Format                                   : MPEG-4\nFormat profile                           : Base Media / Version 2\nCodec ID                                 : mp42\nFile size                                : 753 MiB\nDuration                                 : 33mn 37s\nOverall bit rate mode                    : Variable\nOverall bit rate                         : 3 129 Kbps\nEncoded date                             : UTC 2009-01-09 00:33:55\nTagged date                              : UTC 2009-01-09 00:33:55\n\nVideo\nID                                       : 1\nFormat                                   : AVC\nFormat/Info                              : Advanced Video Codec\nFormat profile                           : &lt;a class=&quot;__cf_email__&quot; href=&quot;/cdn-cgi/l/email-protection&quot; data-cfemail=&quot;9fd2fef6f1dfd3acb1ae&quot;&gt;[email&amp;#160;protected]&lt;/a&gt;&lt;script cf-hash='f9e31' type=&quot;text/javascript&quot;&gt;\n/* &lt;![CDATA[ */!function(){try{var t=&quot;currentScript&quot;in document?document.currentScript:function(){for(var t=document.getElementsByTagName(&quot;script&quot;),e=t.length;e--;)if(t[e].getAttribute(&quot;cf-hash&quot;))return t[e]}();if(t&amp;&amp;t.previousSibling){var e,r,n,i,c=t.previousSibling,a=c.getAttribute(&quot;data-cfemail&quot;);if(a){for(e=&quot;&quot;,r=parseInt(a.substr(0,2),16),n=2;a.length-n;n+=2)i=parseInt(a.substr(n,2),16)^r,e+=String.fromCharCode(i);e=document.createTextNode(e),c.parentNode.replaceChild(e,c)}}}catch(u){}}();/* ]]&gt; */&lt;/script&gt;\nFormat settings, CABAC                   : Yes\nFormat settings, ReFrames                : 2 frames\nFormat settings, GOP                     : M=3, N=33\nCodec ID                                 : avc1\nCodec ID/Info                            : Advanced Video Coding\nDuration                                 : 33mn 37s\nBit rate mode                            : Variable\nBit rate                                 : 3 000 Kbps\nMaximum bit rate                         : 5 000 Kbps\nWidth                                    : 1 280 pixels\nHeight                                   : 720 pixels\nDisplay aspect ratio                     : 16:9\nFrame rate mode                          : Constant\nFrame rate                               : 29.970 fps\nColor space                              : YUV\nChroma subsampling                       : 4:2:0\nBit depth                                : 8 bits\nScan type                                : Progressive\nBits/(Pixel*Frame)                       : 0.109\nStream size                              : 721 MiB (96%)\nLanguage                                 : English\nEncoded date                             : UTC 2009-01-09 00:33:55\nTagged date                              : UTC 2009-01-09 00:33:55\n\nAudio\nID                                       : 2\nFormat                                   : AAC\nFormat/Info                              : Advanced Audio Codec\nFormat profile                           : LC\nCodec ID                                 : 40\nDuration                                 : 33mn 37s\nBit rate mode                            : Constant\nBit rate                                 : 125 Kbps\nNominal bit rate                         : 4 295 Mbps\nChannel(s)                               : 2 channels\nChannel positions                        : Front: L R\nSampling rate                            : 44.1 KHz\nCompression mode                         : Lossy\nStream size                              : 30.2 MiB (4%)\nLanguage                                 : English","torrent":{"xt":"urn:btih:8686833eeccde45861b6b52cffa8bd88486e77a6","amp;dn":"Trinity+Post+-+Pissing","amp;tr":["udp%3A%2F%2Ftracker.openbittorrent.com%3A80","udp%3A%2F%2Fopen.demonii.com%3A1337","udp%3A%2F%2Ftracker.coppersurfer.tk%3A6969","udp%3A%2F%2Fexodus.desync.com%3A6969"],"infoHash":"8686833eeccde45861b6b52cffa8bd88486e77a6","infoHashBuffer":{"type":"Buffer","data":[134,134,131,62,236,205,228,88,97,182,181,44,255,168,189,136,72,110,119,166]},"announce":[],"urlList":[]}}